<svg id="Capa_1" enable-background="new 0 0 510 510" height="512" viewBox="0 0 510 510" width="512" xmlns="http://www.w3.org/2000/svg"><g id="XMLID_323_"><g id="XMLID_325_"><path id="XMLID_48_" d="m240 309.565h30v200.435h-30z" fill="#b5c3ce"/></g><path id="XMLID_3423_" d="m255 309.565h15v200.435h-15z" fill="#8c9ba7"/><g id="XMLID_328_"><path id="XMLID_36_" d="m128.526 387.19h252.947v30h-252.947z" fill="#db9f50"/></g><path id="XMLID_3434_" d="m255 387.19h126.474v30h-126.474z" fill="#896648"/><g id="XMLID_326_"><path id="XMLID_47_" d="m27.033 382.19h202.986v30.001h-202.986z" fill="#fac46d" transform="matrix(.273 -.962 .962 .273 -288.671 412.214)"/></g><g id="XMLID_327_"><path id="XMLID_46_" d="m59.18 479.815h86.551v30h-86.551z" fill="#b5c3ce"/></g><g id="XMLID_333_"><path id="XMLID_45_" d="m366.474 295.697h30.001v202.986h-30.001z" fill="#db9f50" transform="matrix(.962 -.273 .273 .962 -94.07 119.449)"/></g><g id="XMLID_332_"><path id="XMLID_43_" d="m364.27 479.815h86.551v30h-86.551z" fill="#8c9ba7"/></g><path id="XMLID_49_" d="m75.429 0v311.565h120.89l58.681-10 58.681 10h120.89v-311.565z" fill="#f5f3f2"/><path id="XMLID_3250_" d="m196.319 243.863h117.362v67.702h-117.362z" fill="#c4b3af"/><path id="XMLID_3426_" d="m255 0v301.565l58.681 10h120.89v-311.565z" fill="#eedfd5"/><path id="XMLID_3427_" d="m255 243.863h58.681v67.702h-58.681z" fill="#a6908a"/></g></svg>